<svg xmlns="http://www.w3.org/2000/svg" viewBox="0 0 16 16" id="File-Csv--Streamline-Font-Awesome" height="16" width="16">
  <desc>
    File Csv Streamline Icon: https://streamlinehq.com
  </desc>
<!--! Font Awesome Free 6.5.2 by @fontawesome - https://fontawesome.com License - https://fontawesome.com/license/free (Icons: CC BY 4.0, Fonts: SIL OFL 1.1, Code: MIT License) Copyright 2024 Fonticons, Inc.-->
  <path d="M0 2C0 0.896875 0.896875 0 2 0h5v4c0 0.553125 0.446875 1 1 1h4v4.5H5.5c-1.103125 0 -2 0.896875 -2 2v4.5H2c-1.103125 0 -2 -0.896875 -2 -2V2zm12 2H8V0l4 4zM6.25 11h0.5c0.690625 0 1.25 0.559375 1.25 1.25v0.25c0 0.275 -0.225 0.5 -0.5 0.5s-0.5 -0.225 -0.5 -0.5v-0.25c0 -0.1375 -0.1125 -0.25 -0.25 -0.25h-0.5c-0.1375 0 -0.25 0.1125 -0.25 0.25v2.5c0 0.1375 0.1125 0.25 0.25 0.25h0.5c0.1375 0 0.25 -0.1125 0.25 -0.25v-0.25c0 -0.275 0.225 -0.5 0.5 -0.5s0.5 0.225 0.5 0.5v0.25c0 0.690625 -0.559375 1.25 -1.25 1.25h-0.5c-0.690625 0 -1.25 -0.559375 -1.25 -1.25v-2.5c0 -0.690625 0.559375 -1.25 1.25 -1.25zm4.159375 0H11.5c0.275 0 0.5 0.225 0.5 0.5s-0.225 0.5 -0.5 0.5h-1.090625c-0.225 0 -0.409375 0.184375 -0.409375 0.409375 0 0.1625 0.09375 0.309375 0.24375 0.375l1.16875 0.51875c0.509375 0.225 0.8375 0.73125 0.8375 1.2875 0 0.778125 -0.63125 1.409375 -1.409375 1.409375H9.5c-0.275 0 -0.5 -0.225 -0.5 -0.5s0.225 -0.5 0.5 -0.5h1.340625c0.225 0 0.409375 -0.184375 0.409375 -0.409375 0 -0.1625 -0.09375 -0.309375 -0.24375 -0.375l-1.16875 -0.51875c-0.509375 -0.225 -0.8375 -0.73125 -0.8375 -1.2875 0 -0.778125 0.63125 -1.409375 1.409375 -1.409375zm3.090625 0c0.275 0 0.5 0.225 0.5 0.5v0.9875c0 0.71875 0.171875 1.425 0.5 2.0625 0.328125 -0.634375 0.5 -1.340625 0.5 -2.0625V11.5c0 -0.275 0.225 -0.5 0.5 -0.5s0.5 0.225 0.5 0.5v0.9875c0 1.084375 -0.321875 2.146875 -0.925 3.05l-0.159375 0.240625c-0.09375 0.140625 -0.25 0.221875 -0.415625 0.221875s-0.321875 -0.084375 -0.415625 -0.221875l-0.159375 -0.240625c-0.603125 -0.903125 -0.925 -1.965625 -0.925 -3.05V11.5c0 -0.275 0.225 -0.5 0.5 -0.5z" fill="#000000" stroke-width="0.0313"></path>
</svg>